<?xml version="1.0" standalone="no"?>
<!DOCTYPE svg PUBLIC "-//W3C//DTD SVG 1.1//EN" "http://www.w3.org/Graphics/SVG/1.1/DTD/svg11.dtd">
<svg version="1.1" xmlns="http://www.w3.org/2000/svg" viewBox="0 0 52.52303986348852 52.52303986348852" width="52.52303986348852" height="52.52303986348852"><!-- svg-source:excalidraw --><metadata></metadata><defs><style class="style-fonts">
      </style></defs><g stroke-linecap="round" transform="translate(10 10) rotate(0 16.26151993174426 16.26151993174426)"><path d="M32.52 16.26 C32.52 17.2, 32.44 18.16, 32.28 19.09 C32.11 20.01, 31.86 20.94, 31.54 21.82 C31.22 22.71, 30.82 23.58, 30.34 24.39 C29.87 25.21, 29.32 25.99, 28.72 26.71 C28.11 27.44, 27.44 28.11, 26.71 28.72 C25.99 29.32, 25.21 29.87, 24.39 30.34 C23.58 30.82, 22.71 31.22, 21.82 31.54 C20.94 31.86, 20.01 32.11, 19.09 32.28 C18.16 32.44, 17.2 32.52, 16.26 32.52 C15.32 32.52, 14.36 32.44, 13.44 32.28 C12.51 32.11, 11.58 31.86, 10.7 31.54 C9.82 31.22, 8.95 30.82, 8.13 30.34 C7.32 29.87, 6.53 29.32, 5.81 28.72 C5.09 28.11, 4.41 27.44, 3.8 26.71 C3.2 25.99, 2.65 25.21, 2.18 24.39 C1.71 23.58, 1.3 22.71, 0.98 21.82 C0.66 20.94, 0.41 20.01, 0.25 19.09 C0.08 18.16, 0 17.2, 0 16.26 C0 15.32, 0.08 14.36, 0.25 13.44 C0.41 12.51, 0.66 11.58, 0.98 10.7 C1.3 9.82, 1.71 8.95, 2.18 8.13 C2.65 7.32, 3.2 6.53, 3.8 5.81 C4.41 5.09, 5.09 4.41, 5.81 3.8 C6.53 3.2, 7.32 2.65, 8.13 2.18 C8.95 1.71, 9.82 1.3, 10.7 0.98 C11.58 0.66, 12.51 0.41, 13.44 0.25 C14.36 0.08, 15.32 0, 16.26 0 C17.2 0, 18.16 0.08, 19.09 0.25 C20.01 0.41, 20.94 0.66, 21.82 0.98 C22.71 1.3, 23.58 1.71, 24.39 2.18 C25.21 2.65, 25.99 3.2, 26.71 3.8 C27.44 4.41, 28.11 5.09, 28.72 5.81 C29.32 6.53, 29.87 7.32, 30.34 8.13 C30.82 8.95, 31.22 9.82, 31.54 10.7 C31.86 11.58, 32.11 12.51, 32.28 13.44 C32.44 14.36, 32.48 15.79, 32.52 16.26 C32.56 16.73, 32.56 15.79, 32.52 16.26" stroke="#1e1e1e" stroke-width="1" fill="none"></path></g><g stroke-linecap="round" transform="translate(21.101875913343065 14.25888912242226) rotate(0 4.702698249610421 11.78507513155273)"><path d="M6.25 3 C6.89 5.03, 7.54 7.05, 8.16 9 M6.25 3 C6.86 4.93, 7.47 6.85, 8.16 9 M8.16 9 C9.41 12, 9.41 12, 8.16 15 M8.16 9 C9.41 12, 9.41 12, 8.16 15 M8.16 15 C7.54 16.81, 6.92 18.63, 6.25 20.57 M8.16 15 C7.6 16.64, 7.03 18.28, 6.25 20.57 M6.25 20.57 C5 23.57, 5 23.57, 3.75 20.57 M6.25 20.57 C5 23.57, 5 23.57, 3.75 20.57 M3.75 20.57 C3.11 19.14, 2.46 17.71, 1.25 15 M3.75 20.57 C2.81 18.48, 1.87 16.38, 1.25 15 M1.25 15 C0 12, 0 12, 1.25 9 M1.25 15 C0 12, 0 12, 1.25 9 M1.25 9 C1.88 7.49, 2.51 5.98, 3.75 3 M1.25 9 C1.9 7.44, 2.55 5.88, 3.75 3 M3.75 3 C5 0, 5 0, 6.25 3 M3.75 3 C5 0, 5 0, 6.25 3" stroke="#f08c00" stroke-width="1" fill="none"></path></g><g stroke-linecap="round" transform="translate(21.328511973565128 14.25888912242226) rotate(329.99999999999994 4.702698249610421 11.78507513155273)"><path d="M6.25 3 C6.69 4.39, 7.13 5.77, 8.16 9 M6.25 3 C7.01 5.4, 7.77 7.8, 8.16 9 M8.16 9 C9.41 12, 9.41 12, 8.16 15 M8.16 9 C9.41 12, 9.41 12, 8.16 15 M8.16 15 C7.77 16.13, 7.38 17.25, 6.25 20.57 M8.16 15 C7.76 16.16, 7.36 17.32, 6.25 20.57 M6.25 20.57 C5 23.57, 5 23.57, 3.75 20.57 M6.25 20.57 C5 23.57, 5 23.57, 3.75 20.57 M3.75 20.57 C3.08 19.07, 2.41 17.58, 1.25 15 M3.75 20.57 C3 18.9, 2.25 17.24, 1.25 15 M1.25 15 C0 12, 0 12, 1.25 9 M1.25 15 C0 12, 0 12, 1.25 9 M1.25 9 C2.14 6.85, 3.04 4.71, 3.75 3 M1.25 9 C2.16 6.81, 3.08 4.61, 3.75 3 M3.75 3 C5 0, 5 0, 6.25 3 M3.75 3 C5 0, 5 0, 6.25 3" stroke="#f08c00" stroke-width="1" fill="none"></path></g><g stroke-linecap="round" transform="translate(21.555148033787646 14.37220715253352) rotate(209.99999999999997 4.702698249610421 11.78507513155273)"><path d="M6.25 3 C6.88 4.97, 7.5 6.94, 8.16 9 M6.25 3 C6.94 5.19, 7.64 7.37, 8.16 9 M8.16 9 C9.41 12, 9.41 12, 8.16 15 M8.16 9 C9.41 12, 9.41 12, 8.16 15 M8.16 15 C7.74 16.23, 7.32 17.45, 6.25 20.57 M8.16 15 C7.57 16.71, 6.99 18.41, 6.25 20.57 M6.25 20.57 C5 23.57, 5 23.57, 3.75 20.57 M6.25 20.57 C5 23.57, 5 23.57, 3.75 20.57 M3.75 20.57 C2.85 18.57, 1.95 16.56, 1.25 15 M3.75 20.57 C2.92 18.73, 2.1 16.89, 1.25 15 M1.25 15 C0 12, 0 12, 1.25 9 M1.25 15 C0 12, 0 12, 1.25 9 M1.25 9 C1.76 7.79, 2.26 6.57, 3.75 3 M1.25 9 C2.03 7.13, 2.81 5.26, 3.75 3 M3.75 3 C5 0, 5 0, 6.25 3 M3.75 3 C5 0, 5 0, 6.25 3" stroke="#f08c00" stroke-width="1" fill="none"></path></g><g stroke-linecap="round" transform="translate(20.98855788323226 14.37220715253352) rotate(270 4.702698249610421 11.78507513155273)"><path d="M6.25 3 C7 5.35, 7.74 7.7, 8.16 9 M6.25 3 C6.91 5.07, 7.56 7.14, 8.16 9 M8.16 9 C9.41 12, 9.41 12, 8.16 15 M8.16 9 C9.41 12, 9.41 12, 8.16 15 M8.16 15 C7.64 16.51, 7.13 18.01, 6.25 20.57 M8.16 15 C7.63 16.52, 7.11 18.05, 6.25 20.57 M6.25 20.57 C5 23.57, 5 23.57, 3.75 20.57 M6.25 20.57 C5 23.57, 5 23.57, 3.75 20.57 M3.75 20.57 C2.98 18.86, 2.22 17.15, 1.25 15 M3.75 20.57 C3.11 19.15, 2.48 17.73, 1.25 15 M1.25 15 C0 12, 0 12, 1.25 9 M1.25 15 C0 12, 0 12, 1.25 9 M1.25 9 C1.76 7.79, 2.26 6.57, 3.75 3 M1.25 9 C2.07 7.04, 2.88 5.08, 3.75 3 M3.75 3 C5 0, 5 0, 6.25 3 M3.75 3 C5 0, 5 0, 6.25 3" stroke="#f08c00" stroke-width="1" fill="none"></path></g></svg>